<?xml version="1.0" encoding="utf-8"?>
<!-- Generator: Adobe Illustrator 27.5.0, SVG Export Plug-In . SVG Version: 6.00 Build 0)  -->
<svg version="1.1" id="Layer_1" xmlns="http://www.w3.org/2000/svg" xmlns:xlink="http://www.w3.org/1999/xlink" x="0px" y="0px"
	 viewBox="0 0 2000 2000" style="enable-background:new 0 0 2000 2000;" xml:space="preserve">
<rect x="0.5" y="-0.5" style="fill:#FFFFFF;" width="2000" height="2000"/>
<g>
	<rect x="325.92" y="586.684" style="fill:#FFFFFF;" width="1348.16" height="826.609"/>
	<path style="fill:#343348;" d="M1654.333,556.779H345.667c-27.42,0-49.667,22.246-49.667,49.667v787.107
		c0,17.565,9.152,33.053,22.951,41.853c7.709,4.963,16.896,7.815,26.716,7.815h1308.667c26.575,0,48.259-20.874,49.596-47.098
		c0.035-0.845,0.071-1.725,0.071-2.57V606.446C1704,579.026,1681.753,556.779,1654.333,556.779z M355.84,666.286
		c0-27.421,22.247-49.667,49.667-49.667h1188.987c27.42,0,49.667,22.246,49.667,49.667v667.427
		c0,27.421-22.247,49.667-49.667,49.667H405.507c-11.65,0-22.422-4.048-30.905-10.807c-11.44-9.082-18.762-23.126-18.762-38.861
		V666.286z"/>
	<path style="fill:#343348;" d="M1704,1126.456v267.098c0,0.845-0.035,1.725-0.071,2.57c-1.478,26.224-25.52,47.098-54.947,47.098
		H345.667c-9.82,0-19.008-2.851-26.716-7.815c-13.798-8.8-22.951-24.288-22.951-41.853v-87.225l29.92-30.483l29.92-30.483
		l233.623-237.952c29.603-30.166,81.77-30.342,111.584-0.352l170.297,170.966c27.843,27.984,75.68,30.026,106.34,4.505
		l388.326-323.277c31.891-26.611,82.157-23.091,109.19,7.603l162.484,184.378l6.476,7.357l26.682,30.237l3.238,3.661L1704,1126.456z
		"/>
	<circle style="fill:#343348;" cx="593.44" cy="778.328" r="72.16"/>
</g>
</svg>
